# xmcd
#
# Track frame offsets:
#      150
#      15551
#      28415
#      41637
#      54736
#      69667
#      83428
#      96760
#      109091
#      124088
#      141789
#      161535
#      184465
# 
# Disc length: 2658 seconds
#
# Revision: 3
# Processed by: cddbd v1.5.1PL0 Copyright (c) Steve Scherf et al.
#
# Submitted via: FreeRIP 1.21
#
DISCID=b10a600d
DTITLE=Hank III  - Risin' Outlaw 
DYEAR=09
DGENRE=Country
TTITLE0=I Don't Know 
TTITLE1=You're The Reason 
TTITLE2=If The Shoe Fits 
TTITLE3=87 Southbound 
TTITLE4=Lonesome For You 
TTITLE5=What Did Love Ever Do To You 
TTITLE6=On My Own 
TTITLE7=Honky Tonk Girls 
TTITLE8=Devils' Daughter 
TTITLE9=Cocaine Blues 
TTITLE10=Thunderstorms and Neon Signs 
TTITLE11=Why Don't You Leave Me Alone 
TTITLE12=Blue Devil 
EXTD=YEAR: 09/07/1999  ID3G:   2
EXTT0=
EXTT1=
EXTT2=
EXTT3=
EXTT4=
EXTT5=
EXTT6=
EXTT7=
EXTT8=
EXTT9=
EXTT10=
EXTT11=
EXTT12=
PLAYORDER=
